<svg fill="none" height="16" viewBox="0 0 16 16" width="16" xmlns="http://www.w3.org/2000/svg"><path d="m14 5.33331c.3536 0 .6927.14047.9428.39052.25.25005.3905.58919.3905.94281v2.66667c0 .35362-.1405.69279-.3905.94279-.2501.2501-.5892.3905-.9428.3905h-.708c-.1626 1.2889-.7899 2.4742-1.7642 3.3334-.9744.8592-2.22877 1.3333-3.52784 1.3333v-1.3333c1.06087 0 2.07824-.4215 2.82844-1.1716.7501-.7501 1.1716-1.7676 1.1716-2.82843v-4c0-1.06086-.4215-2.07828-1.1716-2.82842-.7502-.75015-1.76757-1.17158-2.82844-1.17158s-2.07828.42143-2.82843 1.17158c-.75014.75014-1.17157 1.76756-1.17157 2.82842v4.66663h-2c-.35362 0-.69276-.1404-.94281-.3905-.250048-.25-.390524-.58917-.390524-.94279v-2.66667c0-.35362.140476-.69276.390524-.94281.25005-.25005.58919-.39052.94281-.39052h.708c.16269-1.28874.79005-2.47382 1.76438-3.33289.97433-.85906 2.22865-1.333062 3.52762-1.333062 1.29896 0 2.55324.474002 3.52764 1.333062.9743.85907 1.6017 2.04415 1.7644 3.33289zm-8.82671 5.18999.70667-1.13066c.63538.39802 1.37024.60856 2.12.60733.74976.00123 1.48462-.20931 2.12004-.60733l.7066 1.13066c-.84713.5308-1.82695.8115-2.82664.81-.99969.0015-1.97951-.2792-2.82667-.81z" fill="#001018"/></svg>