<?xml version="1.0" encoding="UTF-8" standalone="no"?>
<svg
   version="1.0"
   width="979.57471pt"
   height="339.11218pt"
   viewBox="0 0 979.57471 339.11218"
   preserveAspectRatio="xMidYMid"
   id="svg1"
   xml:space="preserve"
   xmlns="http://www.w3.org/2000/svg"
   xmlns:svg="http://www.w3.org/2000/svg"><defs
     id="defs1" /><g
     id="g17"
     transform="translate(246.62772,2.7679637)"><path
       style="fill:#5ac5e7;fill-opacity:1;stroke-width:0.816446"
       id="rect17"
       width="157.51242"
       height="87.250534"
       x="-230.86682"
       y="13.792003"
       d="m -159.40679,13.792003 h 17.77297 a 68.279422,68.279422 45 0 1 68.279419,68.279422 V 101.04254 H -230.86682 V 85.252037 a 71.460034,71.460034 135 0 1 71.46003,-71.460034 z" /><path
       style="fill:#282a3f;fill-opacity:1"
       d="m -165.34818,335.66256 -5.41084,-0.68173 -6.21416,-1.58481 -6.21417,-1.5848 -6.375,-2.62676 -6.375,-2.62675 -4.125,-2.31951 -4.125,-2.31951 -5.625,-4.1792 -5.625,-4.17921 -5.02824,-5.15898 -5.02824,-5.15897 -4.56839,-6.42246 -4.56839,-6.42245 -2.61518,-5.51097 -2.61518,-5.51096 -2.18972,-6.53589 -2.18973,-6.53589 -1.16096,-6.65746 -1.16097,-6.65746 v -20.52675 -20.52676 h 13.5 13.5 v 17.90176 17.90175 l 1.14492,6.66075 1.14491,6.66074 1.21,3.75 1.21,3.75 2.43527,4.87536 2.43528,4.87536 3.5036,4.66082 3.5036,4.66082 4.87396,4.4661 4.87397,4.4661 5.01974,3.02768 5.01975,3.02769 4.96822,1.8656 4.96822,1.8656 6.23793,1.26397 6.23794,1.26397 8.66885,-0.40892 8.66884,-0.40892 4.45388,-1.21541 4.45388,-1.21541 4.38021,-1.76924 4.38022,-1.76925 3.985,-2.41516 3.98499,-2.41516 4.62967,-3.9186 4.62966,-3.9186 4.09963,-5.14463 4.09964,-5.14464 2.596148,-4.94049 2.596155,-4.94049 2.078483,-6.72207 2.078484,-6.72208 0.258986,-37.3125 0.258986,-37.3125 h -78.077192 -78.07719 l 0.23812,-53.4375 0.23812,-53.437504 1.97559,-7.21089 1.97559,-7.2109 3.01565,-7.2173 3.01565,-7.21729 4.04989,-6.21309 4.0499,-6.2131 5.02999,-5.76736 5.02999,-5.76736 7.28594,-5.47976 7.28593,-5.47975 6.05971,-3.1455797 6.0597,-3.14558 6.6903,-2.22493 6.69029,-2.22493998 6,-1.28020002 6,-1.28021 11.25,0.0114 11.25,0.0114 6.80319,1.52761 6.80319,1.52761002 7.22447,2.70587998 7.22447,2.70588 5.47234,3.08515 5.47234,3.0851397 6.031958,4.6908 6.031959,4.6908 4.323979,4.67042 4.323979,4.67041 3.775664,5.34783 3.775663,5.34784 2.836251,5.625 2.836251,5.625 1.955182,5.44209 1.955182,5.44209 1.567148,7.30791 1.567149,7.30791 0.424947,22.687504 0.424947,22.6875 h -78.493159 -78.49315 l 0.20302,15.1875 0.20303,15.1875 h 78 78.000002 l -0.0062,49.875 -0.0062,49.875 -1.333311,6.57743 -1.333311,6.57742 -2.175425,6.65706 -2.175426,6.65706 -2.978495,5.89051 -2.978495,5.89052 -3.724755,5.25 -3.724755,5.25 -4.660259,5.06192 -4.660258,5.06192 -6.496587,4.88722 -6.496585,4.88721 -6.375,3.28016 -6.37501,3.28016 -5.625,2.01573 -5.625,2.01573 -6.75,1.43448 -6.75,1.43448 -8.25,0.33749 -8.25,0.3375 z m 74.567191,-248.414784 -0.441547,-8.4375 -1.556831,-6 -1.55683,-6 -2.577955,-5.44138 -2.57795,-5.44138 -3.361168,-4.71026 -3.36117,-4.71026 -4.36145,-4.13794 -4.36146,-4.13794 -3.375,-2.29907 -3.375,-2.29906 -5.37784,-2.70324 -5.37784,-2.70324 -6.24716,-1.69951 -6.24716,-1.69952 -10.125,5.7e-4 -10.125,5.7e-4 -6,1.71245 -6,1.71244 -6.75,3.30039 -6.75,3.30038 -5.57258,4.728 -5.57258,4.728 -3.96985,5.21682 -3.96985,5.21682 -2.56602,5.28318 -2.56602,5.28318 -1.58171,5.15013 -1.58171,5.15013 -0.81604,8.94244 -0.81604,8.94245 0.42016,1.09493 0.42017,1.09492 h 64.25999 64.259989 z m 351.396809,102.104654 -3.94683,-0.6575 -4.67817,-1.55555 -4.67817,-1.55554 -4.875,-2.89039 -4.875,-2.89039 -4.23432,-3.79921 -4.23433,-3.7992 -3.84027,-5.18023 -3.84026,-5.18023 -2.52463,-5.51696 -2.52462,-5.51695 -1.38772,-5.25 -1.38771,-5.25 v -10.875 -10.875 l 1.37722,-5.25 1.37721,-5.25 3.19241,-6.75 3.19242,-6.750004 4.44346,-5.23827 4.44347,-5.23827 4.38693,-3.53419 4.38694,-3.53419 4.9619,-2.59278 4.9619,-2.59277 4.125,-1.24149 4.125,-1.24148 8.26469,-0.43372 8.2647,-0.43372 6.3603,1.26738 6.36031,1.26739 6.05003,2.97147 6.05003,2.97147 4.19517,3.73909 4.19516,3.73908 h 0.41197 0.41198 l 0.21783,-6.1875 0.21783,-6.1875 12.1875,-0.20608 12.1875,-0.20607 v 57.393574 57.39358 h -12.375 -12.375 v -6 -6 h -0.63376 -0.63375 l -1.42875,1.61455 -1.42874,1.61455 -5.46955,3.59355 -5.46955,3.59356 -4.28045,1.62014 -4.28045,1.62015 -5.625,1.02058 -5.625,1.02059 -4.875,-0.0615 -4.875,-0.0615 z m 23.96554,-25.40025 4.80172,-1.4831 4.08979,-2.85224 4.08978,-2.85224 3.48779,-4.60899 3.48778,-4.60899 1.66344,-4.36817 1.66344,-4.36817 0.37852,-6.75 0.37852,-6.75 -0.86661,-4.17374 -0.86661,-4.17375 -2.1192,-4.48105 -2.1192,-4.48104 -4.29993,-4.64443 -4.29992,-4.644434 -4.61901,-2.25518 -4.61901,-2.25517 -5.06108,-0.70134 -5.06109,-0.70134 -4.50777,0.63717 -4.50777,0.63717 -2.80614,0.92121 -2.80615,0.9212 -2.71407,1.70714 -2.71408,1.70714 -3.88697,3.990224 -3.88697,3.99022 -2.6211,5.27682 -2.62109,5.27682 -0.59711,5.97318 -0.5971,5.97318 0.58796,5.45526 0.58795,5.45525 2.62542,5.41975 2.62543,5.41974 3.98087,4.01494 3.98086,4.01495 3.01819,1.76959 3.01818,1.7696 4.10682,1.1036 4.10681,1.1036 5.3585,0.0494 5.3585,0.0494 z m 376.73129,25.81569 -1.5,-0.34736 -4.125,-0.80212 -4.125,-0.80212 -7.125,-3.40317 -7.125,-3.40317 -7.60528,-7.64626 -7.60529,-7.64626 -3.81064,-7.82856 -3.81065,-7.82857 -1.29364,-5.25 -1.29365,-5.25 -0.0293,-10.125 -0.0293,-10.125 1.02821,-4.125 1.02822,-4.125 2.16543,-5.50057 2.16544,-5.50056 2.70943,-4.235524 2.70943,-4.23552 3.08577,-3.67196 3.08577,-3.67197 5.16802,-4.05202 5.16802,-4.05201 5.33198,-2.55214 5.33198,-2.55213 6.33617,-1.27335 6.33617,-1.27335 8.28883,0.42286 8.28883,0.42285 4.57989,1.44886 4.57989,1.44886 4.46842,2.38164 4.46842,2.38164 4.60871,3.72908 4.60871,3.72908 0.21798,-6.19688 0.21798,-6.19689 h 12.375 12.375 l 0.19219,57.187504 0.19218,57.1875 H 720.19229 707.4376 v -6.09612 -6.09612 l -2.4375,2.0003 -2.4375,2.0003 -4.99182,3.33644 -4.99183,3.33644 -6.91413,2.31644 -6.91412,2.31645 -7.96905,0.2829 -7.96905,0.28291 z m 20.36236,-25.37879 3.86236,-1.02839 3.88475,-2.11434 3.88474,-2.11435 3.99538,-4.31548 3.99537,-4.31548 1.91795,-4.05421 1.91795,-4.05422 0.75874,-3.29116 0.75873,-3.29117 0.0183,-6.8585 0.0183,-6.8585 -1.50695,-4.87895 -1.50696,-4.87895 -3.08548,-4.62054 -3.08547,-4.62054 -3.87925,-2.92886 -3.87925,-2.928864 -3.42055,-1.51307 -3.42054,-1.51307 -5.22912,-0.74163 -5.22911,-0.74162 -4.81616,0.76841 -4.81616,0.76841 -3.96091,1.80486 -3.96092,1.80487 -4.3878,4.185264 -4.38781,4.18525 -2.31538,4.3441 -2.31539,4.34411 -1.14839,4.40898 -1.1484,4.40899 v 5.54666 5.54667 l 1.18025,4.55471 1.18024,4.55471 1.89598,3.74154 1.89599,3.74155 3.66566,3.87589 3.66565,3.87589 3.86497,2.10358 3.86497,2.10358 3.45565,0.95297 3.45564,0.95297 5.25,0.0582 5.25,0.0582 z M -17.812348,109.93528 V 33.435276 l 21.9375002,0.006 21.9374998,0.006 6.75,0.76475 6.75,0.76476 4.875,1.19237 4.875,1.19238 5.492916,2.51352 5.492916,2.51352 3.800269,2.78966 3.800269,2.78965 3.325761,4.51773 3.32576,4.51772 1.137714,2.65332 1.137713,2.65332 1.220112,3.75 1.220111,3.75 -0.0286,10.125 -0.0286,10.125 -1.314247,4.81502 -1.314248,4.81503 -2.120844,4.184974 -2.120843,4.18498 -2.540704,3.19713 -2.540703,3.19712 -4.472374,3.36706 -4.472373,3.36706 -5.625,2.18214 -5.625,2.18214 -6,1.25898 -6,1.25897 -12.5625,0.41706 -12.5624998,0.41706 v 28.76514 28.76514 h -13.875 -13.8750002 z m 50.335133,-8.24302 4.039867,-0.74302 4.845987,-2.444484 4.845987,-2.44448 2.228422,-3.60935 2.228421,-3.60936 0.327218,-6.23432 0.327219,-6.23433 -0.929644,-2.81685 -0.929645,-2.81685 -2.670822,-2.95628 -2.670823,-2.95628 -2.943174,-1.5015 -2.943175,-1.50149 -4.982985,-1.05617 -4.982986,-1.05617 -9.1875,-0.013 -9.1874998,-0.013 v 21.375 21.375004 h 9.2726328 9.272632 z m 62.164866,8.24302 V 33.435276 h 13.499999 13.5 l 0.0277,0.9375 0.0278,0.9375 -2.9e-4,21.67855 -2.9e-4,21.67855 0.38796,0.62773 0.38796,0.62773 3.89708,-2.90935 3.89708,-2.90935 3.16389,-1.58762 3.16389,-1.58763 4.71111,-1.11072 4.71111,-1.11072 6,0.002 6,0.002 5.00526,1.06083 5.00525,1.06083 4.36771,2.11365 4.36772,2.11365 5.33428,5.25 5.33428,5.25 2.67393,5.625 2.67392,5.625 1.32515,4.500004 1.32515,4.5 0.26743,40.3125 0.26744,40.3125 h -13.53626 -13.53626 v -32.19573 -32.19573 l -0.80492,-5.78721 -0.80493,-5.7872 -1.26143,-3.21136 -1.26144,-3.21136 -2.3507,-3.33497 -2.3507,-3.334964 -4.1055,-2.00863 -4.1055,-2.00864 -5.91494,-0.0708 -5.91494,-0.0708 -3.93123,1.69832 -3.93123,1.69833 -2.70415,2.99316 -2.70414,2.993174 -1.1688,2.72967 -1.1688,2.72967 -1.10475,4.12501 -1.10474,4.125 -0.35227,35.0625 -0.35228,35.0625 h -13.4263 -13.426309 z m 262.682819,19.3125 0.19218,-57.187504 12.5625,-0.20563 12.5625,-0.20564 v 4.14314 4.14313 h 0.39792 0.39791 l 2.38286,-2.71392 2.38286,-2.71393 2.72917,-1.72285 2.72917,-1.72285 4.00118,-1.18822 4.00119,-1.18823 h 3.98887 3.98887 v 12.71602 12.71601 l -2.8125,0.45822 -2.8125,0.45821 -3.64351,1.1175 -3.64351,1.11751 -2.91141,1.83789 -2.9114,1.837894 -1.93408,2.92258 -1.93407,2.92259 -1.07351,3.56699 -1.07351,3.56699 v 36.2558 36.2558 h -13.87968 -13.87969 z m 65.06718,-0.20564 V 71.649006 l 12.5625,0.20564 12.5625,0.20563 0.22493,4.3125 0.22493,4.3125 h 0.48937 0.48936 l 2.28571,-2.20154 2.2857,-2.20154 4.38248,-2.62926 4.38248,-2.62926 5.14058,-1.1692 5.14057,-1.1692 h 5.50687 5.50688 l 4.47007,1.14122 4.47007,1.14121 4.57057,2.22322 4.57057,2.22322 5.02181,4.94823 5.02181,4.94823 5.03922,-4.75017 5.03922,-4.75016 5.02826,-2.47088 5.02826,-2.47089 5.09014,-1.07859 5.09014,-1.07859 6.12153,-0.013 6.12152,-0.013 5.72706,1.09577 5.72706,1.09576 5.02642,2.4418 5.02641,2.44179 4.90283,4.89994 4.90282,4.89994 2.71903,5.25 2.71904,5.25 1.32861,4.500004 1.32861,4.5 0.27841,40.6875 0.27842,40.6875 h -13.50231 -13.50232 l -0.26313,-36.9375 -0.26314,-36.9375 -1.32981,-4.1345 -1.3298,-4.1345 -2.52036,-3.473 -2.52036,-3.473004 -4.18377,-2.04693 -4.18376,-2.04692 -5.85904,0.0256 -5.85904,0.0256 -3.49915,1.64479 -3.49915,1.6448 -2.36707,2.69594 -2.36707,2.695944 -1.43457,3.24309 -1.43458,3.24308 -1.06914,5.04502 -1.06915,5.04502 -0.013,33.9375 -0.013,33.9375 h -13.875 -13.875 l -0.0263,-34.6875 -0.0263,-34.6875 -0.98594,-4.59286 -0.98593,-4.59287 -1.60872,-3.32316 -1.60872,-3.32317 -2.4415,-2.512604 -2.4415,-2.5126 -3.24201,-1.44308 -3.24202,-1.44308 h -5.96138 -5.96137 l -3.3571,1.62514 -3.35711,1.62515 -2.621,3.06205 -2.62101,3.062064 -1.44869,3.87199 -1.4487,3.87199 -0.8073,5.80429 -0.80731,5.80429 v 32.19573 32.19573 h -13.5 -13.5 z"
       id="path17" /><path
       d="m 50.856455,289.86545 q 0,11.56055 -10.364631,18.66962 -10.364631,7.04263 -28.369855,7.04263 -9.9659913,0 -18.0716641,-1.86031 -8.1056729,-1.86032 -13.0222289,-4.11928 v -19.66622 h 2.192518 q 1.793879,1.26236 4.119277,2.79047 2.391838,1.46168 6.7104339,3.18912 3.7206367,1.52812 8.4378725,2.6576 4.7172359,1.06304 10.0988716,1.06304 7.042633,0 10.43107,-1.52812 3.388437,-1.59456 3.388437,-4.6508 0,-2.72403 -1.993198,-3.91995 -1.993198,-1.26236 -7.574153,-2.39184 -2.657598,-0.59796 -7.2419538,-1.26236 -4.517916,-0.73084 -8.2385528,-1.72744 -10.165311,-2.6576 -15.0818664,-8.23855 -4.916556,-5.6474 -4.916556,-14.01883 0,-10.76327 10.1653111,-17.87234 10.231751,-7.17552 27.9047759,-7.17552 8.371432,0 16.012025,1.72744 7.707034,1.661 12.02563,3.58776 v 18.86894 H 45.40838 q -5.315196,-3.65419 -12.15851,-5.91315 -6.776874,-2.3254 -13.753068,-2.3254 -5.780274,0 -9.7666709,1.59456 -3.9199566,1.59456 -3.9199566,4.51791 0,2.6576 1.7938784,4.05284 1.7938785,1.39524 8.4378731,2.79048 3.654196,0.73084 7.839913,1.46168 4.252156,0.6644 8.504312,1.72744 9.434472,2.45827 13.952388,7.77347 4.517916,5.24875 4.517916,13.15511 z m 92.152195,-13.62019 q 0,18.40386 -10.76327,29.03425 -10.69683,10.56395 -30.09729,10.56395 -19.400467,0 -30.163737,-10.56395 -10.696831,-10.63039 -10.696831,-29.03425 0,-18.53674 10.763271,-29.1007 10.82971,-10.56395 30.097297,-10.56395 19.53334,0 30.16373,10.63039 10.69683,10.6304 10.69683,29.03426 z m -29.43289,18.1381 q 2.32539,-2.85691 3.45487,-6.84331 1.19592,-4.05284 1.19592,-11.16191 0,-6.57756 -1.19592,-11.02903 -1.19592,-4.45148 -3.32199,-7.10907 -2.12608,-2.72404 -5.11588,-3.85352 -2.9898,-1.12948 -6.44467,-1.12948 -3.454881,0 -6.178918,0.93016 -2.657598,0.93016 -5.115876,3.72064 -2.192518,2.59115 -3.521317,7.10907 -1.262359,4.51792 -1.262359,11.36123 0,6.11247 1.129479,10.63039 1.129479,4.45148 3.321997,7.17551 2.126079,2.59116 5.049436,3.78708 2.989797,1.19592 6.776878,1.19592 3.25555,0 6.17891,-1.06304 2.9898,-1.12948 5.04944,-3.72064 z m 70.49277,19.13471 H 160.15016 V 210.13752 h 23.91837 z m 96.93587,0 h -23.91838 v -8.23856 q -6.64399,5.04944 -12.15851,7.70704 -5.51451,2.59115 -13.15511,2.59115 -12.35783,0 -19.06826,-7.10907 -6.64399,-7.10907 -6.64399,-20.99502 v -48.5676 h 24.05126 v 37.00705 q 0,5.64739 0.33219,9.43447 0.39864,3.72064 1.72744,6.17892 1.26236,2.45827 3.78708,3.58775 2.59116,1.12948 7.17551,1.12948 3.05624,0 6.77688,-1.12948 3.72063,-1.12948 7.17551,-3.32199 v -52.8862 h 23.91838 z m 70.29347,-0.6644 q -3.85352,0.9966 -8.17212,1.52812 -4.31859,0.59796 -10.56395,0.59796 -13.95239,0 -20.7957,-5.6474 -6.77687,-5.64739 -6.77687,-19.33402 v -34.88097 h -9.83311 v -16.21135 h 9.83311 v -21.32722 h 23.91838 v 21.32722 h 22.39026 v 16.21135 h -22.39026 v 26.44309 q 0,3.91996 0.0664,6.84332 0.0664,2.92336 1.06303,5.24875 0.93016,2.3254 3.25556,3.72064 2.39184,1.3288 6.90976,1.3288 1.86031,0 4.85011,-0.79728 3.05624,-0.79728 4.25216,-1.46168 h 1.9932 z m 38.20296,0.6644 h -23.91838 v -74.61206 h 23.91838 z m 0.6644,-85.24245 h -25.24718 v -18.1381 h 25.24718 z m 98.19824,47.96964 q 0,18.40386 -10.76327,29.03425 -10.69683,10.56395 -30.09729,10.56395 -19.40047,0 -30.16374,-10.56395 -10.69683,-10.63039 -10.69683,-29.03425 0,-18.53674 10.76327,-29.1007 10.82971,-10.56395 30.0973,-10.56395 19.53334,0 30.16373,10.63039 10.69683,10.6304 10.69683,29.03426 z m -29.43289,18.1381 q 2.32539,-2.85691 3.45487,-6.84331 1.19592,-4.05284 1.19592,-11.16191 0,-6.57756 -1.19592,-11.02903 -1.19592,-4.45148 -3.32199,-7.10907 -2.12608,-2.72404 -5.11588,-3.85352 -2.9898,-1.12948 -6.44467,-1.12948 -3.45488,0 -6.17892,0.93016 -2.6576,0.93016 -5.11587,3.72064 -2.19252,2.59115 -3.52132,7.10907 -1.26236,4.51792 -1.26236,11.36123 0,6.11247 1.12948,10.63039 1.12948,4.45148 3.322,7.17551 2.12607,2.59116 5.04943,3.78708 2.9898,1.19592 6.77688,1.19592 3.25555,0 6.17891,-1.06304 2.9898,-1.12948 5.04944,-3.72064 z m 121.51864,19.13471 h -24.05126 v -37.00705 q 0,-4.51792 -0.46508,-8.96939 -0.46508,-4.51792 -1.59455,-6.644 -1.3288,-2.45828 -3.91996,-3.58775 -2.52472,-1.12948 -7.10907,-1.12948 -3.25556,0 -6.644,1.06304 -3.322,1.06303 -7.24195,3.38843 v 52.8862 h -23.91838 v -74.61206 h 23.91838 v 8.23855 q 6.37823,-4.98299 12.22495,-7.64059 5.91315,-2.6576 13.08867,-2.6576 12.09206,0 18.86894,7.04264 6.84331,7.04263 6.84331,21.06146 z m 86.83698,-23.65262 q 0,11.56055 -10.36463,18.66962 -10.36463,7.04263 -28.36985,7.04263 -9.96599,0 -18.07167,-1.86031 -8.10567,-1.86032 -13.02223,-4.11928 v -19.66622 h 2.19252 q 1.79388,1.26236 4.11928,2.79047 2.39184,1.46168 6.71043,3.18912 3.72064,1.52812 8.43788,2.6576 4.71723,1.06304 10.09887,1.06304 7.04263,0 10.43107,-1.52812 3.38843,-1.59456 3.38843,-4.6508 0,-2.72403 -1.99319,-3.91995 -1.9932,-1.26236 -7.57416,-2.39184 -2.65759,-0.59796 -7.24195,-1.26236 -4.51792,-0.73084 -8.23855,-1.72744 -10.16531,-2.6576 -15.08187,-8.23855 -4.91656,-5.6474 -4.91656,-14.01883 0,-10.76327 10.16532,-17.87234 10.23175,-7.17552 27.90477,-7.17552 8.37143,0 16.01203,1.72744 7.70703,1.661 12.02563,3.58776 v 18.86894 h -2.05964 q -5.3152,-3.65419 -12.15851,-5.91315 -6.77688,-2.3254 -13.75307,-2.3254 -5.78027,0 -9.76667,1.59456 -3.91996,1.59456 -3.91996,4.51791 0,2.6576 1.79388,4.05284 1.79388,1.39524 8.43787,2.79048 3.6542,0.73084 7.83992,1.46168 4.25215,0.6644 8.50431,1.72744 9.43447,2.45827 13.95239,7.77347 4.51791,5.24875 4.51791,13.15511 z"
       id="text17"
       style="font-weight:bold;font-size:136.069px;font-family:'TeX Gyre Adventor';-inkscape-font-specification:'TeX Gyre Adventor Bold';fill:#5ac5e7;stroke-width:11.3391"
       aria-label="solutions" /></g></svg>
